<svg id="Layer_1" data-name="Layer 1" xmlns="http://www.w3.org/2000/svg" viewBox="0 0 1182.33 939.03">

	<!-- MetaData stuff -->
	<metadata>

		<rdf:RDF xmlns:rdf="http://www.w3.org/1999/02/22-rdf-syntax-ns#" xmlns:dc="http://purl.org/dc/elements/1.1/">

			<rdf:Description
					dc:title="Fontys Transportation Logo"
					dc:description="A Fontys Transportation Logo created for PRJ2 Group01 (2020)"
					dc:date="2020-04-11"
					dc:format="image/svg+xml"
					dc:language="en"
			>
				<dc:creator>
					<rdf:Bag>
						<rdf:li>Tony</rdf:li>
					</rdf:Bag>
				</dc:creator>
			</rdf:Description>
		</rdf:RDF>

	</metadata>

	<!-- Definitions -->
	<defs>
		<style>
			.fontys-color{
			fill:#0078d4;
			}
		</style>
	</defs>

	<!-- The title -->
	<title>Fontys Transportation Logo</title>

	<!-- Fontys Mascot (bird/dolphin) -->
	<path class="fontys-color"
		  d="M333.51,319.45c-34.59,21.06-71.4,39.25-103.28,63.82C175.91,425.12,130.29,475.76,97.73,537c-.74,1.39-2.37,2.32-3.58,3.46.1-1.89-.23-3.92.36-5.64,8.93-26.38,15.26-54.06,27.47-78.84C172.82,352.79,245.3,269.29,348.42,214.57c4.63-2.46,8.79-14.76,6.66-19.6-17.23-39-45-68.34-84.4-85.9-2.14-1-4.21-2-6.32-3.06,2.36-.91,4.66-2.43,7.08-2.65a588.2,588.2,0,0,1,168.39,8.5c54.25,10.68,102.41,35.32,151.28,59.45,19.3,9.53,42.14,12.17,63.57,17,67.46,15.33,128.63,44.58,185.3,83.57a77.48,77.48,0,0,1,22.11,22.95c9.31,15.48,3.5,25.93-14.49,23.93-25.19-2.8-50.06-9-74.9-14.51C662,279.7,550.8,263.88,440.07,301.9,399.5,315.83,314,355.16,310.14,356.08c1.59-3.78,17.33-28.31,23.59-36.79a2.2,2.2,0,0,1,0-.33Z"
		  transform="translate(-24.04 -23.08)"/>

	<!-- second flap/wing -->
	<path class="fontys-color"
		  d="M373.76,23.08c17,5.43,30.55,9.54,44,14.11,52.66,17.91,99.43,45.87,139.71,84.16,9.72,9.24,16.84,21.2,25.16,31.91-11.07-5.32-22.8-9.62-33.11-16.15-43-27.26-89.5-43.63-140.36-47.78-3.8-.31-8.81-3.83-10.63-7.25-8.45-16-16.09-32.36-23.72-48.73C373.67,31,374.17,27.82,373.76,23.08Z"
		  transform="translate(-24.04 -23.08)"/>

	<!-- The Truck -->
	<path class="fontys-color"
		  d="M816.83,961.2c-108.51,0-217.09,2.41-325.52-.61-134.16-3.74-257.45-41.62-361-131.28-49-42.44-84.55-94.25-99.63-157.69C15.9,609.41,26.41,549.64,56,493.16c.8-1.53,2.67-2.5,4-3.73-.24,2.34,0,4.86-.8,7C45.79,531.8,37.85,568.14,39.81,606.26c3.36,65.3,28.74,121.49,71.75,169.85,62.65,70.45,142.22,112.66,231.88,138.44,70.08,20.15,141.45,26.55,214,26.13,112-.65,223.91-.15,335.86-.2,30.94,0,41.61-10.57,41.61-40.9,0-69.23.46-138.48-.39-207.7-.17-13.92,5.06-18.88,17.27-18.72,27.3.35,54.65.48,81.87,2.26,7.46.49,15.75,5.14,21.6,10.25,22.39,19.55,43.53,40.53,66,60,13.06,11.35,27.33,21.43,41.73,31.07,17.85,12,29,26.31,28,49.44-.88,21.44.7,64.48.7,64.48A61.41,61.41,0,0,1,1202.16,903c6.44,9.81,4.24,40.31,1.69,51-1.57,6.59-22.75,6.74-32,6.81-118.33.94-236.67.62-355,.62Zm281.09-206.29c-11-11.44-41.59-43.5-53.66-56.14a18.82,18.82,0,0,0-13.16-5.29c-13.09-.12-39-.34-55.79-.44-1.45,0-4.15,3.17-4.17,4.77l-.58,63.1c0,1.42,3.09,4.23,4.73,4.21l121.94-1.65C1102.78,763.39,1102.9,760.11,1097.91,754.91Z"
		  transform="translate(-24.04 -23.08)"/>

	<!-- The Trailer (& Fontys tail) -->
	<path class="fontys-color"
		  d="M878.86,599.59c25.34,0,36.83,11.31,36.86,36.52q.1,126.69,0,253.39c0,24.92-11.93,36.63-36.85,36.64-108,0-216.07.45-324.1-.06-98.54-.46-190-25.68-274-78.34-57.5-36-110.75-75.87-147.57-134.4C92,648,91.75,585.48,139,524.52c5.89-7.6,15.71-19.78,24.33-29.67,24.22-27.77,53.33-55.43,54.66-56.2-.77,1.77-35.56,93.39-36.31,95.16-.71-1.7-7.22-25.82-9.39-34-6.19,7.2-11.79,11.37-18.34,21.75-43.12,68.35-26.81,140.52,32.51,195.65,68.5,63.67,147.62,106,241.1,119.86,13.79,2,18.41.32,18.15-15.14-1-60.38-.54-120.79-.56-181.19,0-29,12-41.16,40.35-41.16C550.82,599.57,813.05,599.54,878.86,599.59Z"
		  transform="translate(-24.04 -23.08)"/>

</svg>
