<svg id="Layer_1" data-name="Layer 1" xmlns="http://www.w3.org/2000/svg" viewBox="0 0 536 536">
	
	<defs>
		<style>.cls-1{fill:#fa9c0f;}</style>
	</defs>

	<title>logo</title>

	<path class="cls-1" d="M268,0C120,0,0,120,0,268S120,536,268,536,536,416,536,268,416,0,268,0ZM150.35,85.78c1-1.46,2.91-.71,4.38-.38C169.34,88.67,183.22,93.77,197,99q13.63,5.12,26.64,11.48c6.91,3.38,13.28,7.29,18.35,13-6.19-1.44-12.32-2.55-18.41-3.78-16.26-3.27-32.63-5.34-49.36-3.69-2.41.24-4-.32-5.12-2.36-4.67-8.79-10.84-16.76-17.31-24.57C151,88,149.47,87,150.35,85.78ZM100,268.49A151.28,151.28,0,0,1,121,220.77a242.67,242.67,0,0,1,44.56-50.86c2.78-2.4,3-4.76.91-7.48-5.16-6.74-10.76-13.18-18.39-17.88s-15.1-9.74-24.41-12.41c8.55-3.6,17.44-5.38,26.4-6.9,19.41-3.3,39-3.38,58.66-2.69a288,288,0,0,1,30,3,38.1,38.1,0,0,0,14.64-.53,231.81,231.81,0,0,1,64.56-6.18,91.84,91.84,0,0,1,14.63,2.08c4.43.92,7.74,3.53,8.44,7.56s-3,6.09-6.42,7.76c-5.94,2.9-12.67,3.88-19.09,5.57-30.46,8-59.88,18.12-86.92,33-20.3,11.17-38.73,24.53-56.52,38.59-2.87,2.27-5.82,4.47-9.37,7.19-.37-5.5,4.25-8.84,5.31-14.54-28.59,20.79-52.45,43.41-68.12,73.43A22.2,22.2,0,0,1,100,268.49Zm340,82.3c-1.8,4.56-3.4,9.21-6.34,13.33-13.8,19.31-32.93,30.54-59.59,29.86-16.78-.43-28.67-11.23-28.84-25.77-.3-24.94,29.48-50.74,59.25-51.31,7.85-.15,8.09-.16,7.7-7-1.31-22.85-2.83-45.7-4.18-68.55-.27-4.49-3.06-2.7-5.36-1.83Q334.83,265,267,290.59c-3.06,1.15-4.32,2.84-4.1,5.74.5,6.68.8,13.37,1.22,20.05,1.72,27.67,3.39,55.34,5.19,83,1.11,17.08-7.8,29.86-21.82,40.63-8.88,6.82-19.41,10.69-30.48,13.66H197.92a8.24,8.24,0,0,0-1.41-.64c-22-5.5-26.1-23.32-19.58-39,9.62-23.12,38.12-38,59.05-37.27,4.36.16,5.53-1.54,5.3-5-1.34-19.89-2.58-39.78-3.86-59.67-.06-.93-.21-1.86-.26-2.79-.43-7.46-.34-7.32-8.08-3.6-23,11-46.75,20.06-72.91,23.27C144,330.44,132,330.71,120,327.24c-11.41-3.32-18.51-11.13-19.14-21.71-.84-14.16,5.2-26.5,13-38.38a82.71,82.71,0,0,1,7.45-9.63c-.17,9.22-3.13,18.23-.54,28.46-3.71-2.33-4.59-4.93-6.07-7.09s-2.73-2.26-3.77.18c-8.13,19.08-1.92,38,25.93,38.42,23.53.38,45.19-6.32,65.74-15.95,9.68-4.53,19.2-9.34,28.91-13.82,3.51-1.62,4.59-3.81,4.35-7.17-1.29-18-2.35-36-3.65-54.07-.24-3.36,2.22-4.27,4.84-5.26q27-10.26,54.12-20.48l131.21-49.48c5.87-2.21,6.8-1.75,7.11,3.67,1.5,26.43,2.92,52.86,4.49,79.29q2.55,43.13,5.32,86.26a18.82,18.82,0,0,0,.75,3.18Z"/>

	<path class="cls-1" d="M404.86,191.31c-.31-5.21-.56-5.38-6.18-3.27Q331.87,213.2,265,238.26c-4.17,1.56-5.65,3.6-5.28,7.4.79,8.21,1.52,16.44,1.87,24.67.17,4,1.47,4.55,5.35,2.74,10.46-4.89,21-9.62,31.59-14.33,33.76-15,67.48-30.18,101.4-44.95,5.14-2.23,7.81-4.4,6.06-8.31C405.55,200,405.12,195.66,404.86,191.31Z"/>
</svg>
